<?xml version="1.0" encoding="UTF-8"?>
<svg version="1.1" xmlns="http://www.w3.org/2000/svg" width="458" height="538">
<path d="M0 0 C151.14 0 302.28 0 458 0 C458 177.54 458 355.08 458 538 C306.86 538 155.72 538 0 538 C0 360.46 0 182.92 0 0 Z " fill="#F8E59E" transform="translate(0,0)"/>
<path d="M0 0 C0.84526245 0.2630896 1.6905249 0.5261792 2.56140137 0.79724121 C5.5561375 1.73575239 8.54386225 2.69460947 11.53125 3.65625 C13.27849365 4.21530029 13.27849365 4.21530029 15.06103516 4.78564453 C23.24615771 7.40688453 31.42215818 10.05568055 39.5953064 12.71398926 C46.37549154 14.9191748 53.15846851 17.11574958 59.94125938 19.31290436 C62.19914404 20.04432003 64.45697141 20.77591235 66.71479797 21.50750732 C78.6176492 25.3637009 90.52347623 29.21044775 102.44189453 33.01831055 C104.27227741 33.60360179 106.10220476 34.19031982 107.93164062 34.77856445 C110.42585411 35.58024267 112.92164173 36.37680658 115.41796875 37.171875 C116.11802536 37.39792419 116.81808197 37.62397339 117.53935242 37.85687256 C119.52892204 38.48663135 121.52740556 39.07372555 123.53125 39.65625 C124.2354155 39.88778778 124.93958099 40.11932556 125.66508484 40.35787964 C132.17903543 42.23430122 136.75536966 40.92479138 143.02734375 38.6953125 C144.03304413 38.35858017 145.03874451 38.02184784 146.07492065 37.6749115 C149.38003926 36.56376901 152.67385402 35.42230962 155.96875 34.28125 C158.28648741 33.49735313 160.60510695 32.71606008 162.92456055 31.93725586 C166.51864829 30.72999687 170.11205578 29.52100534 173.70277405 28.30375671 C186.03533649 24.12417654 198.43374899 20.16110238 210.84375 16.21875 C214.9600448 14.90753231 219.07577734 13.59455607 223.19140625 12.28125 C224.16484482 11.97086288 225.13828339 11.66047577 226.14122009 11.34068298 C232.21375189 9.40255189 238.27951345 7.44468361 244.33984375 5.46875 C245.07757523 5.22865707 245.8153067 4.98856415 246.57539368 4.74119568 C249.89483517 3.6607478 253.21288705 2.57659577 256.52856445 1.48461914 C257.64835693 1.11973389 258.76814941 0.75484863 259.921875 0.37890625 C260.87094727 0.06703369 261.82001953 -0.24483887 262.79785156 -0.56616211 C272.08280698 -3.20751465 279.68586564 -2.94108061 288.53125 0.65625 C289.2015625 0.92308594 289.871875 1.18992187 290.5625 1.46484375 C300.63054123 5.95950501 307.30744622 13.56437598 311.53125 23.65625 C314.56391123 35.14245441 313.35770913 45.45424106 307.56640625 55.59765625 C296.80472379 71.77116368 276.49901327 77.01571387 258.53125 81.65625 C257.54125 81.65625 256.55125 81.65625 255.53125 81.65625 C255.53125 82.31625 255.53125 82.97625 255.53125 83.65625 C256.56378906 83.72457031 257.59632813 83.79289062 258.66015625 83.86328125 C265.20575044 84.68850138 271.2913408 87.12247687 277.46875 89.34375 C278.69271484 89.76591797 279.91667969 90.18808594 281.17773438 90.62304688 C294.18355463 95.26148627 304.25742785 101.37532844 310.46875 114.09375 C313.75298422 122.80411031 314.60292587 132.8531794 311.12890625 141.64453125 C306.05646257 152.71660882 298.84993423 160.93218445 287.40625 165.53125 C278.10304229 168.2031055 268.747451 167.34882153 259.640625 164.50390625 C258.91147888 164.28263565 258.18233276 164.06136505 257.43109131 163.83338928 C249.14699662 161.28775256 240.96198386 158.45064227 232.78125 155.59375 C223.71843559 152.43740406 214.66390358 149.3335663 205.47558594 146.55688477 C200.96462994 145.17704093 196.49958114 143.66734592 192.03125 142.15625 C186.38265351 140.25870589 180.73602538 138.37956756 175.03125 136.65625 C169.32634154 134.93289224 163.68095706 133.05073877 158.03125 131.15625 C156.21361131 130.55187386 154.39590441 129.94770277 152.578125 129.34375 C149.57963673 128.34648992 146.59008927 127.33031066 143.609375 126.28125 C142.51109375 125.91 141.4128125 125.53875 140.28125 125.15625 C138.91226563 124.67671875 138.91226563 124.67671875 137.515625 124.1875 C128.42921128 122.57002321 119.58728013 126.33263695 111.08984375 129.15234375 C109.6627239 129.61866596 108.23533851 130.08417618 106.80770874 130.54893494 C103.76969996 131.53968354 100.73349411 132.53570518 97.69863892 133.53607178 C92.94017626 135.1044904 88.17789227 136.66105396 83.41479492 138.21533203 C78.55713212 139.80099274 73.69966563 141.38723356 68.84352112 142.97753906 C54.57475854 147.64991988 40.28884243 152.26775482 25.99368286 156.8586731 C22.39356827 158.01524539 18.794266 159.17431805 15.19506836 160.33374023 C13.02201405 161.03251806 10.84892075 161.73117464 8.67578125 162.4296875 C7.20738297 162.90304787 7.20738297 162.90304787 5.70932007 163.38597107 C4.81500275 163.67287308 3.92068542 163.95977509 2.99926758 164.25537109 C2.22746658 164.50354584 1.45566559 164.75172058 0.66047668 165.00741577 C-8.90827108 167.92327772 -19.39359115 168.02577093 -28.46875 163.65625 C-29.95375 163.0684375 -29.95375 163.0684375 -31.46875 162.46875 C-32.12875 162.200625 -32.78875 161.9325 -33.46875 161.65625 C-33.46875 160.99625 -33.46875 160.33625 -33.46875 159.65625 C-34.04625 159.41003906 -34.62375 159.16382813 -35.21875 158.91015625 C-42.32286807 154.95109045 -47.0243115 147.22434209 -49.46875 139.65625 C-51.60557984 130.95117809 -51.58299552 121.70225434 -47.46875 113.65625 C-47.1284375 112.91761719 -46.788125 112.17898438 -46.4375 111.41796875 C-40.74384465 99.97295209 -30.53055167 94.62725121 -18.87084961 90.33032227 C-15.1665697 89.09980014 -11.45026292 87.92641158 -7.71875 86.78125 C-6.42418822 86.3759281 -5.12991538 85.96968215 -3.8359375 85.5625 C-0.71624148 84.58468483 2.40600142 83.61613862 5.53125 82.65625 C1.3849225 80.80887636 -2.55088494 79.24772254 -6.96875 78.15625 C-11.35167094 77.01132371 -15.31232665 75.46996201 -19.46875 73.65625 C-22.78243232 72.58590129 -26.11886613 71.60661947 -29.46875 70.65625 C-29.46875 69.99625 -29.46875 69.33625 -29.46875 68.65625 C-30.45875 68.3778125 -30.45875 68.3778125 -31.46875 68.09375 C-39.84173061 64.08169679 -44.8218017 57.21484142 -48.71875 49.03125 C-51.64957761 39.75029589 -51.87400338 29.43123052 -47.46875 20.65625 C-47.1284375 19.91632813 -46.788125 19.17640625 -46.4375 18.4140625 C-41.97615677 9.46123183 -34.5628392 3.62909443 -25.46875 -0.34375 C-16.64285922 -3.23550944 -8.71503608 -2.81200007 0 0 Z " fill="#3D5069" transform="translate(97.46875,328.34375)"/>
<path d="M0 0 C2.30872827 3.46309241 2.15562014 5.13118063 1.61328125 9.15625 C0.72150321 13.29137364 -0.67436815 17.22542249 -2.05639648 21.21899414 C-4.18141703 27.40121992 -5.75230755 33.57826089 -7 40 C-7.13680176 40.64308105 -7.27360352 41.28616211 -7.41455078 41.94873047 C-9.88770976 53.81822063 -10.31676455 65.60757422 -10.375 77.6875 C-10.38276459 78.41777405 -10.39052917 79.1480481 -10.39852905 79.90045166 C-10.50168433 92.21100596 -10.08983904 105.59274001 -5 117 C6.66127911 108.06795643 16.0727816 98.01333777 24.20898438 85.81201172 C26.10318573 83.07378077 27.47479641 81.2274818 30.5703125 79.88671875 C33.8246812 80.03844977 34.77566604 80.60066668 37 83 C38.19311243 85.51610798 39.20917175 87.96414733 40.1875 90.5625 C44.67708814 101.88876476 50.24996524 112.6496897 55.83276367 123.46508789 C71.4944913 154.03247653 81.68578545 194.16988662 71 228 C70.77183594 228.79277344 70.54367187 229.58554687 70.30859375 230.40234375 C69.62009901 232.64093523 68.83559857 234.81225101 68 237 C67.67515625 237.886875 67.3503125 238.77375 67.015625 239.6875 C56.86694998 265.82381374 36.98561411 287.39261204 11.4765625 299.12817383 C-13.7548289 310.2000799 -42.7676945 312.09871101 -68.65014648 302.1796875 C-76.27191604 299.1603345 -83.80195663 295.93998163 -91 292 C-91 291.34 -91 290.68 -91 290 C-91.7115625 289.76925781 -92.423125 289.53851563 -93.15625 289.30078125 C-96.56533185 287.74140727 -98.76718069 285.74759898 -101.5 283.1875 C-102.4178125 282.33542969 -103.335625 281.48335938 -104.28125 280.60546875 C-106.89110247 278.10436013 -109.45856938 275.57049928 -112 273 C-112.63421875 272.36320312 -113.2684375 271.72640625 -113.921875 271.0703125 C-133.56451229 250.1685318 -140.73887114 221.46336153 -140.08447266 193.47851562 C-139.17667104 166.84267167 -131.44374299 140.38434711 -119.00585938 116.91455078 C-118.04655086 115.08860481 -117.1208587 113.24946008 -116.203125 111.40234375 C-99.7450356 78.76677649 -73.34583314 46.87315415 -44 25 C-43.3615918 24.51756836 -42.72318359 24.03513672 -42.06542969 23.53808594 C-32.5188478 16.34868476 -22.77086845 9.82933235 -12.37890625 3.92578125 C-4.62718214 -0.49225342 -4.62718214 -0.49225342 0 0 Z " fill="#F7E49E" transform="translate(262,39)"/>
<path d="M0 0 C2.30872827 3.46309241 2.15562014 5.13118063 1.61328125 9.15625 C0.72150321 13.29137364 -0.67436815 17.22542249 -2.05639648 21.21899414 C-4.18141703 27.40121992 -5.75230755 33.57826089 -7 40 C-7.13680176 40.64308105 -7.27360352 41.28616211 -7.41455078 41.94873047 C-9.88770976 53.81822063 -10.31676455 65.60757422 -10.375 77.6875 C-10.38276459 78.41777405 -10.39052917 79.1480481 -10.39852905 79.90045166 C-10.50168433 92.21100596 -10.08983904 105.59274001 -5 117 C6.66127911 108.06795643 16.0727816 98.01333777 24.20898438 85.81201172 C26.10318573 83.07378077 27.47479641 81.2274818 30.5703125 79.88671875 C33.8246812 80.03844977 34.77566604 80.60066668 37 83 C38.19311243 85.51610798 39.20917175 87.96414733 40.1875 90.5625 C44.67708814 101.88876476 50.24996524 112.6496897 55.83276367 123.46508789 C71.4944913 154.03247653 81.68578545 194.16988662 71 228 C70.77183594 228.79277344 70.54367187 229.58554687 70.30859375 230.40234375 C69.62009901 232.64093523 68.83559857 234.81225101 68 237 C67.67515625 237.886875 67.3503125 238.77375 67.015625 239.6875 C56.86694998 265.82381374 36.98561411 287.39261204 11.4765625 299.12817383 C-13.7548289 310.2000799 -42.7676945 312.09871101 -68.65014648 302.1796875 C-76.27191604 299.1603345 -83.80195663 295.93998163 -91 292 C-91 291.34 -91 290.68 -91 290 C-91.7115625 289.76925781 -92.423125 289.53851563 -93.15625 289.30078125 C-96.56533185 287.74140727 -98.76718069 285.74759898 -101.5 283.1875 C-102.4178125 282.33542969 -103.335625 281.48335938 -104.28125 280.60546875 C-106.89110247 278.10436013 -109.45856938 275.57049928 -112 273 C-112.63421875 272.36320312 -113.2684375 271.72640625 -113.921875 271.0703125 C-133.56451229 250.1685318 -140.73887114 221.46336153 -140.08447266 193.47851562 C-139.17667104 166.84267167 -131.44374299 140.38434711 -119.00585938 116.91455078 C-118.04655086 115.08860481 -117.1208587 113.24946008 -116.203125 111.40234375 C-99.7450356 78.76677649 -73.34583314 46.87315415 -44 25 C-43.3615918 24.51756836 -42.72318359 24.03513672 -42.06542969 23.53808594 C-32.5188478 16.34868476 -22.77086845 9.82933235 -12.37890625 3.92578125 C-4.62718214 -0.49225342 -4.62718214 -0.49225342 0 0 Z M-45 40 C-45.72960937 40.62003906 -46.45921875 41.24007812 -47.2109375 41.87890625 C-60.50883124 53.47485113 -73.34722189 66.03769499 -83.75830078 80.31396484 C-85.03825055 82.05193832 -86.35623438 83.75505627 -87.68359375 85.45703125 C-114.52657187 120.30949227 -133.49758153 167.53896147 -128.77294922 212.14355469 C-125.34718518 238.111692 -112.0243927 262.25009217 -91.25927734 278.34960938 C-82.10392883 284.9494415 -71.28528189 291.52216547 -60 293 C-60.66 292.360625 -61.32 291.72125 -62 291.0625 C-63.00333957 290.04494882 -64.00283155 289.02359942 -65 288 C-65.94166016 287.05253906 -65.94166016 287.05253906 -66.90234375 286.0859375 C-77.04988699 275.3735598 -81.49027668 263.42705842 -81.24609375 248.76171875 C-80.90081022 243.48381337 -79.75092556 238.97101853 -78 234 C-77.63261719 232.86949219 -77.26523438 231.73898437 -76.88671875 230.57421875 C-71.67877902 215.2149044 -63.75007426 200.61479445 -55 187 C-52.67578125 187.01953125 -52.67578125 187.01953125 -50 188 C-48.80167077 190.62153773 -47.97064204 192.94220965 -47.1875 195.6875 C-44.52230777 204.0834351 -41.15178424 211.79409284 -36 219 C-35.01 219.33 -34.02 219.66 -33 220 C-33 219.01 -33 218.02 -33 217 C-32.34 217 -31.68 217 -31 217 C-25.05151257 204.59677089 -18.84463359 190.78454282 -17.5625 176.9375 C-17 174 -17 174 -15.0625 172.5625 C-13 172 -13 172 -11 172 C-10.74347656 172.84691406 -10.48695313 173.69382813 -10.22265625 174.56640625 C-8.92433502 178.21249047 -7.23992863 181.52728565 -5.4375 184.9375 C2.38076062 200.17848149 8.41832082 216.5021048 13 233 C13.24492187 233.84691406 13.48984375 234.69382812 13.7421875 235.56640625 C17.24168661 249.73218687 15.95100762 264.1059042 8.40234375 276.65625 C7.41020134 278.15787095 6.39077765 279.64222913 5.33203125 281.09765625 C3.93686745 282.98301655 3.93686745 282.98301655 2.94140625 285.18359375 C1.70670429 287.56590251 0.39547831 287.87271609 -2 289 C-3.37086915 290.29470975 -4.71340837 291.62150897 -6 293 C-0.76873815 292.40963816 3.42360537 290.72993777 8.125 288.5 C8.87273682 288.14542725 9.62047363 287.79085449 10.39086914 287.42553711 C17.28426195 284.04424922 23.11285201 279.95132967 29 275 C30.30710937 273.93652344 30.30710937 273.93652344 31.640625 272.8515625 C38.08271773 267.37775978 43.53128351 261.18880479 48 254 C48 253.01 48 252.02 48 251 C48.66 251 49.32 251 50 251 C50.33 249.35 50.66 247.7 51 246 C51.66 246 52.32 246 53 246 C64.46845363 220.3369849 66.30850284 192.39637989 60 165 C59.84966309 164.32211426 59.69932617 163.64422852 59.54443359 162.94580078 C55.25697437 144.38461956 45.90115061 127.17759508 36.8828125 110.5390625 C34.68108194 106.45573431 32.78967701 102.27966242 31 98 C26.64925239 99.56996317 24.31228435 102.96528835 21.5 106.4375 C13.32882947 116.21342947 3.85559257 126.77417959 -8 132 C-10.1875 131.88671875 -10.1875 131.88671875 -12 131 C-18.84751018 119.23084188 -21.09162818 102.69196961 -21.16796875 89.29296875 C-21.17224884 88.57459335 -21.17652893 87.85621796 -21.18093872 87.11607361 C-21.19087833 84.80648475 -21.19100131 82.49710608 -21.1875 80.1875 C-21.18656342 79.39833191 -21.18562683 78.60916382 -21.18466187 77.79608154 C-21.13957077 60.32694895 -19.44136794 44.51013591 -15.12109375 27.546875 C-14.2338552 24.04973033 -13.51973243 20.57389043 -13 17 C-21.71925801 17 -38.36363173 34.21814738 -45 40 Z " fill="#3D5069" transform="translate(262,39)"/>
<path d="M0 0 C0.99 0.99 1.98 1.98 3 3 C-6.57 6.3 -16.14 9.6 -26 13 C-25.67 14.32 -25.34 15.64 -25 17 C-20.25151269 16.4381175 -16.04657494 15.48046591 -11.55078125 13.86328125 C-9.78444336 13.24549805 -9.78444336 13.24549805 -7.98242188 12.61523438 C-5.52169644 11.74173578 -3.06337241 10.86144444 -0.60742188 9.97460938 C0.56626953 9.56662109 1.73996094 9.15863281 2.94921875 8.73828125 C4.01487061 8.35712158 5.08052246 7.97596191 6.1784668 7.58325195 C9 7 9 7 11.19067383 7.51635742 C13.72664269 9.59584504 14.70809705 12.02862322 16 15 C-7.38986624 22.91023724 -30.86577667 30.55413055 -54.35535812 38.16187668 C-56.7355254 38.93281168 -59.11558857 39.70406737 -61.49563599 40.47537231 C-65.3275909 41.71702685 -69.15989959 42.95758376 -72.99248695 44.1972847 C-74.413745 44.6570793 -75.8349305 45.1170982 -77.25603294 45.5773735 C-78.59623828 46.01134533 -79.93663268 46.44473375 -81.27722454 46.87751007 C-82.5704099 47.29577545 -83.86285552 47.71633584 -85.15450001 48.13933563 C-88.57564673 49.25249077 -92.00397478 50.29216953 -95.47131348 51.25271606 C-96.20593433 51.46285874 -96.94055519 51.67300142 -97.69743729 51.88951206 C-99.10727976 52.29069749 -100.52180991 52.67587223 -101.941082 53.04230404 C-104.10751457 53.62035267 -104.10751457 53.62035267 -107 55 C-108.52202428 57.51796464 -108.52202428 57.51796464 -109 60 C-101.32546123 59.44053534 -94.37147093 57.05449314 -87.1015625 54.65234375 C-85.72366031 54.20304789 -84.34553681 53.75443027 -82.96720886 53.30644226 C-80.03738448 52.35276659 -77.10903082 51.39475252 -74.18179321 50.4331665 C-69.60491681 48.92979213 -65.02486534 47.4362756 -60.4440918 45.94482422 C-55.80223376 44.43313042 -51.16047734 42.92113786 -46.51976013 41.40594482 C-33.38268024 37.11732849 -20.23091374 32.87617583 -7.06829834 28.66653442 C-3.85114346 27.6373621 -0.63477442 26.60576074 2.58154297 25.57397461 C4.50613157 24.95800392 6.43077024 24.34218965 8.35546875 23.7265625 C9.22814896 23.44640793 10.10082916 23.16625336 10.99995422 22.87760925 C16.88504497 21 16.88504497 21 18 21 C18.35438445 31.88747771 17.19093805 38.09595586 10.0703125 46.5703125 C2.4248425 52.62054449 -8.0437526 55.14149745 -17.23828125 58.0546875 C-18.98544182 58.61549011 -18.98544182 58.61549011 -20.76789856 59.18762207 C-23.29014474 59.99656886 -25.81289151 60.80367047 -28.33673096 61.60760498 C-32.41551616 62.90698781 -36.49189016 64.21382369 -40.56787109 65.52197266 C-41.98827732 65.97776493 -43.40868751 66.43354484 -44.82910156 66.88931274 C-45.5418222 67.11800678 -46.25454285 67.34670082 -46.98886108 67.58232498 C-49.18706667 68.28737545 -51.38549405 68.99173028 -53.58398438 69.69589233 C-68.29750896 74.40936169 -82.99547771 79.17048013 -97.69180298 83.93725586 C-102.15259905 85.38408282 -106.6137304 86.82987382 -111.07495117 88.27539062 C-111.81586408 88.51546089 -112.55677698 88.75553116 -113.32014179 89.00287628 C-114.81830723 89.48830556 -116.31647395 89.97373087 -117.81464195 90.45915222 C-120.06132331 91.18711873 -122.30798593 91.91514306 -124.55464172 92.64318848 C-149.69481509 100.79004608 -174.83648129 108.93223398 -199.98416424 117.05588531 C-204.67729275 118.57213311 -209.36976975 120.09038618 -214.06201172 121.609375 C-220.38768289 123.65704314 -226.71488227 125.69993649 -233.04315186 127.73956299 C-235.36904081 128.48995775 -237.69444924 129.24184373 -240.01934814 129.99530029 C-243.17957107 131.01916972 -246.34148125 132.03764374 -249.50390625 133.0546875 C-250.4315831 133.35661011 -251.35925995 133.65853271 -252.31504822 133.96960449 C-253.5813784 134.37499451 -253.5813784 134.37499451 -254.87329102 134.78857422 C-255.60306656 135.02422089 -256.3328421 135.25986755 -257.08473206 135.50265503 C-259 136 -259 136 -262 136 C-261.65775391 134.56720703 -261.65775391 134.56720703 -261.30859375 133.10546875 C-258.75770132 121.88649525 -258.23667552 112.96080133 -263.0625 102.19140625 C-264 100 -264 100 -265 96 C-246.85 90.06 -228.7 84.12 -210 78 C-209.67 76.35 -209.34 74.7 -209 73 C-218.08423981 75.0637475 -226.95437798 77.53937242 -235.79296875 80.48828125 C-236.72142609 80.79772675 -237.64988342 81.10717224 -238.60647583 81.42599487 C-242.45078122 82.71288134 -246.29221647 84.00788225 -250.13012695 85.3137207 C-252.9726954 86.27815933 -255.81985684 87.22786145 -258.66796875 88.17578125 C-259.96482857 88.62405022 -259.96482857 88.62405022 -261.28788757 89.08137512 C-268.76113322 91.55242128 -268.76113322 91.55242128 -273 90 C-275.8125 88.5625 -275.8125 88.5625 -278 87 C-278 86.34 -278 85.68 -278 85 C-239.393905 72.04893997 -200.69545907 59.3815682 -161.89935303 47.01135254 C-145.90933772 41.91181207 -129.94755992 36.7307185 -114 31.5 C-91.51130062 24.12463514 -68.99339653 16.84142755 -46.43226624 9.69033813 C-41.60863677 8.16042009 -36.79545011 6.605301 -31.99389648 5.00732422 C-30.51836807 4.52218857 -30.51836807 4.52218857 -29.01303101 4.0272522 C-27.15656501 3.41631387 -25.30272894 2.79729423 -23.45230103 2.16830444 C-15.7611779 -0.34556249 -8.0474193 -1.43666735 0 0 Z " fill="#F5E39D" transform="translate(381,338)"/>
<path d="M0 0 C13.76674102 17.41784583 23.76420756 49.93752285 23.0625 72.1875 C21.63832185 83.42612322 16.47809896 93.65299768 7.78515625 100.828125 C-3.65052692 109.42746969 -14.98669141 111.5132519 -29 110 C-39.37631559 107.8923109 -48.77907737 101.78760713 -54.7578125 93.0390625 C-61.8919663 81.32828173 -64.38776194 68.36059328 -61.125 54.8984375 C-59.98027978 50.84363941 -58.54709716 46.91668951 -57 43 C-56.73767578 42.33081543 -56.47535156 41.66163086 -56.20507812 40.97216797 C-52.28793846 31.16757678 -47.43712597 22.03833927 -42 13 C-41.34 13 -40.68 13 -40 13 C-39.72027344 13.71542969 -39.44054687 14.43085938 -39.15234375 15.16796875 C-35.04062401 25.38777376 -30.64152807 35.89534901 -23 44 C-20.63233819 44.03830065 -20.63233819 44.03830065 -18 43 C-16.28250031 40.67134622 -15.0349447 38.62091405 -13.75 36.0625 C-13.18454468 34.97207397 -13.18454468 34.97207397 -12.60766602 33.85961914 C-7.25080338 23.05847554 -3.69565164 11.44873003 0 0 Z " fill="#F6E49E" transform="translate(249,223)"/>
<path d="M0 0 C0.73541016 0.22300781 1.47082031 0.44601562 2.22851562 0.67578125 C8.13012791 2.4939801 13.94174509 4.54218197 19.74755859 6.64306641 C24.66080444 8.40561019 29.60564887 9.944854 34.625 11.375 C41.10042907 13.22002115 47.42040836 15.35238134 53.75 17.64453125 C58.66277232 19.40554339 63.60654683 20.94510985 68.625 22.375 C75.08764894 24.21637975 81.39583951 26.34278866 87.71264648 28.63134766 C95.41454388 31.39272683 103.25466777 33.64884846 111.125 35.875 C111.125 36.865 111.125 37.855 111.125 38.875 C109.77853014 39.41541988 108.42220432 39.93129956 107.0625 40.4375 C106.30839844 40.72753906 105.55429688 41.01757812 104.77734375 41.31640625 C98.67514812 42.60155202 92.62060487 40.23793988 86.85546875 38.3359375 C85.2923396 37.83326525 83.72918791 37.33066309 82.16601562 36.828125 C79.72493479 36.03575554 77.28468048 35.24091675 74.8449707 34.44433594 C72.47541472 33.6728636 70.103139 32.91026748 67.73046875 32.1484375 C66.99716843 31.9058017 66.2638681 31.66316589 65.50834656 31.41317749 C61.7889634 29.98290316 61.7889634 29.98290316 58.125 30.875 C58.125 32.195 58.125 33.515 58.125 34.875 C59.07246094 35.11283203 59.07246094 35.11283203 60.0390625 35.35546875 C66.78966047 37.11607139 73.31297709 39.29386049 79.86328125 41.69140625 C82.93484657 42.80599822 86.02063537 43.85586668 89.125 44.875 C86.60624718 46.55416855 84.67760791 47.55806884 81.875 48.5625 C81.14796875 48.83449219 80.4209375 49.10648437 79.671875 49.38671875 C74.2134106 50.43320349 68.85205417 48.62023345 63.67529297 46.93237305 C62.432677 46.53034164 61.19006104 46.12831024 59.90979004 45.71409607 C58.56222263 45.27173819 57.21468941 44.82927611 55.8671875 44.38671875 C54.45194756 43.92662023 53.03653851 43.46704161 51.62097168 43.00794983 C47.85405534 41.78472588 44.08943956 40.55456767 40.32530975 39.32279968 C36.45193041 38.05633224 32.57673351 36.79545239 28.70166016 35.53417969 C24.09772242 34.03533019 19.49397622 32.53590572 14.89120483 31.03347778 C6.42466732 28.27033794 -2.04755743 25.52653935 -10.53125 22.81640625 C-12.27980861 22.25633948 -14.02834508 21.69620361 -15.77685547 21.13598633 C-18.11443887 20.38716945 -20.45247783 19.64004892 -22.7925415 18.89901733 C-24.8556413 18.2453237 -26.91632198 17.58451369 -28.9765625 16.921875 C-30.08338379 16.56963867 -31.19020508 16.21740234 -32.33056641 15.85449219 C-34.875 14.875 -34.875 14.875 -36.875 12.875 C-35.225 10.565 -33.575 8.255 -31.875 5.875 C-27.65658036 6.6170547 -23.63456175 7.8233162 -19.5625 9.125 C-18.14976444 9.57169321 -16.73700321 10.01830523 -15.32421875 10.46484375 C-14.5976709 10.6954248 -13.87112305 10.92600586 -13.12255859 11.16357422 C-9.37681373 12.34922494 -5.62567426 13.51755714 -1.875 14.6875 C-0.52080839 15.11059725 0.83336062 15.53376685 2.1875 15.95703125 C3.6415625 16.41142578 3.6415625 16.41142578 5.125 16.875 C5.125 15.225 5.125 13.575 5.125 11.875 C-4.445 8.575 -14.015 5.275 -23.875 1.875 C-16.37211156 -3.75216633 -8.65861217 -2.71547086 0 0 Z " fill="#F1E09B" transform="translate(96.875,339.125)"/>
<path d="M0 0 C6.08378748 4.42559126 9.65827551 10.41577467 11.75 17.5625 C12.32997312 23.21723791 12.16038064 27.70706743 10 33 C9.74347656 33.64066406 9.48695312 34.28132813 9.22265625 34.94140625 C6.20824865 41.75940113 1.80076318 46.15312213 -5.1875 48.875 C-13.06564764 51.11631287 -21.51309658 51.25712485 -28.8984375 47.45703125 C-34.58209906 43.51650009 -39.5557983 37.92599186 -41.59765625 31.2265625 C-43.41781225 21.15385455 -41.73155502 13.59733254 -36.125 5.1875 C-26.08919239 -5.14347842 -12.51068791 -6.24613137 0 0 Z " fill="#F0DF9B" transform="translate(100,434)"/>
<path d="M0 0 C7.01088932 4.5456538 10.41091204 10.23273613 13 18 C13.78008128 28.06432727 13.25759801 34.91453571 6.75 42.6875 C-1.18703804 49.36182744 -7.62150602 51.81010336 -18 51 C-26.06182449 49.55232476 -31.88266314 45.37335123 -36.609375 38.7421875 C-40.75551519 31.49808863 -41.00111098 24.62571216 -39.55859375 16.51953125 C-37.7166814 9.78902133 -33.75310892 4.18984096 -27.68359375 0.6484375 C-18.28102639 -3.65784541 -9.62699384 -4.24853249 0 0 Z " fill="#F1E09C" transform="translate(386,433)"/>
<path d="M0 0 C1.33532644 0.44201993 2.67237821 0.87889009 4.01171875 1.30859375 C6.68762333 2.17311677 9.34761014 3.06644663 12 4 C10.92894704 6.74949958 9.82573789 9.32761277 8.4375 11.9375 C3.91955832 21.5626801 5.24741683 34.02188602 8 44 C1.15417943 43.41153405 -4.94174543 41.06532088 -11.375 38.75 C-18.87209636 36.09964301 -26.34863266 33.4832972 -34 31.3125 C-40.35721438 29.50712794 -46.62015507 27.50025346 -52.88037109 25.38354492 C-62.54417363 22.12345432 -72.27454784 19.07018639 -82 16 C-82 15.34 -82 14.68 -82 14 C-75.18424031 11.00299928 -71.01809877 10.80684414 -64 13 C-62.7625 13.34546875 -61.525 13.6909375 -60.25 14.046875 C-53.00149644 16.08224458 -45.88303254 18.35242888 -38.8125 20.9375 C-28.73332547 24.61904985 -18.37665195 27.29833507 -8 30 C-7.67 28.35 -7.34 26.7 -7 25 C-7.55042969 24.86464844 -8.10085938 24.72929687 -8.66796875 24.58984375 C-17.96978777 22.1814658 -27.02432549 19.04380491 -36.12158203 15.97021484 C-41.01414814 14.32110053 -45.91367996 12.69292134 -50.8125 11.0625 C-52.58987489 10.47014552 -54.3672216 9.87770645 -56.14453125 9.28515625 C-56.89065674 9.03644775 -57.63678223 8.78773926 -58.40551758 8.53149414 C-58.93169678 8.35610107 -59.45787598 8.18070801 -60 8 C-56.3676594 4.3676594 -50.97633706 3.25930209 -45.9375 2.8203125 C-39.71792553 3.18474069 -33.86941625 5.68138431 -28.11499023 7.91577148 C-23.90698994 9.51230931 -20.58172138 10.33911954 -16 10 C-16 8.68 -16 7.36 -16 6 C-17.55460937 5.49339844 -17.55460937 5.49339844 -19.140625 4.9765625 C-20.5104696 4.52620263 -21.88025834 4.07567286 -23.25 3.625 C-23.93191406 3.40328125 -24.61382812 3.1815625 -25.31640625 2.953125 C-28.6756032 1.84426387 -31.89741865 0.71121755 -35 -1 C-22.28078595 -8.13986133 -13.05820277 -4.66572794 0 0 Z " fill="#F0DF9C" transform="translate(330,430)"/>
<path d="M0 0 C8.96024095 2.04329298 17.53349373 4.79919231 26.1875 7.875 C34.81099046 10.90670869 43.43201811 13.83126227 52.2331543 16.30810547 C57.78896036 17.88788259 63.18789307 19.80011642 68.61474609 21.76611328 C74.35158468 23.82341655 80.15116923 25.56062243 86.00952148 27.23510742 C91.77408911 28.89541698 97.40345434 30.83632468 103 33 C100.87044686 35.12955314 99.90435731 35.48980912 97.0859375 36.2890625 C96.32539063 36.50820313 95.56484375 36.72734375 94.78125 36.953125 C93.9871875 37.17484375 93.193125 37.3965625 92.375 37.625 C91.57320313 37.85445313 90.77140625 38.08390625 89.9453125 38.3203125 C87.96520363 38.88605789 85.98280967 39.44379429 84 40 C83.60785812 39.54355606 83.21571625 39.08711212 82.81169128 38.61683655 C80.6292865 36.66915824 78.79247991 36.03113173 76.01293945 35.13061523 C74.99790848 34.79694443 73.9828775 34.46327362 72.93708801 34.11949158 C71.84023178 33.76939529 70.74337555 33.41929901 69.61328125 33.05859375 C68.48230515 32.69024918 67.35132904 32.3219046 66.18608093 31.94239807 C63.79087848 31.16413029 61.39425289 30.39023092 58.99633789 29.62036133 C55.34153021 28.44682145 51.69096765 27.2608113 48.04101562 26.07226562 C45.71117622 25.31697156 43.38110531 24.56239116 41.05078125 23.80859375 C39.96404617 23.45647324 38.8773111 23.10435272 37.75764465 22.74156189 C32.20587825 20.96141351 26.67647796 19.33215187 21 18 C20.01 20.475 20.01 20.475 19 23 C19.91265625 23.23783203 19.91265625 23.23783203 20.84375 23.48046875 C35.17369667 27.29476338 49.1518955 32.02750449 63.12719727 36.96533203 C64.20283936 37.34286621 65.27848145 37.72040039 66.38671875 38.109375 C67.34795654 38.44936523 68.30919434 38.78935547 69.29956055 39.13964844 C71.85681453 39.95438156 74.3597413 40.53091394 77 41 C75.68232748 43.63534505 74.61842537 43.73427593 71.875 44.6875 C71.12992187 44.95949219 70.38484375 45.23148437 69.6171875 45.51171875 C63.0465802 46.73757832 56.42022729 44.04591654 50.2265625 42.05078125 C49.30338226 41.75568161 48.38020203 41.46058197 47.42904663 41.15653992 C45.48326813 40.53171651 43.53850948 39.90370923 41.59472656 39.27270508 C38.64564498 38.31917516 35.69039614 37.38683529 32.734375 36.45507812 C30.83551918 35.84244089 28.93706772 35.22854867 27.0390625 34.61328125 C26.16690094 34.34115311 25.29473938 34.06902496 24.39614868 33.78865051 C15.820492 30.95668252 8.08292628 26.62438941 3 19 C-0.00084671 12.69457715 -0.31715012 6.88610143 0 0 Z " fill="#EFDE9B" transform="translate(58,359)"/>
<path d="M0 0 C4.7442636 2.39979515 7.98371569 5.58336127 11.0625 9.875 C12.79189935 15.6396645 12.87632716 20.70312387 10.375 26.25 C7.72626122 30.94846949 4.35314237 33.69957922 -0.375 36.3125 C-4.89970538 37.49754189 -8.79125422 37.94951617 -13.1171875 36.08984375 C-18.50748952 32.92685521 -22.97706603 29.06880192 -25 23 C-25.0685495 21.10529184 -25.08480372 19.2083166 -25.0625 17.3125 C-25.05347656 16.31863281 -25.04445313 15.32476562 -25.03515625 14.30078125 C-25.02355469 13.54152344 -25.01195312 12.78226562 -25 12 C-24.34 12 -23.68 12 -23 12 C-22.95875 11.278125 -22.9175 10.55625 -22.875 9.8125 C-21.48353299 5.33992746 -18.06760016 3.2440645 -14.15625 0.890625 C-9.59159431 -0.99477626 -4.80715606 -0.78914467 0 0 Z " fill="#40526A" transform="translate(379,439)"/>
<path d="M0 0 C5.83512787 2.40040377 10.15959305 6.3191861 13 12 C13.93811609 19.61180273 13.4030995 25.0878453 8.6328125 31.22265625 C4.68562166 35.51923958 0.93923298 36.56009153 -4.734375 36.9921875 C-10.83206414 37.01321401 -15.12126389 34.80288885 -19.48828125 30.76953125 C-22.86725238 26.81430147 -23.8044679 22.5642568 -24.4375 17.5 C-23.7487201 11.98976079 -22.1261189 8.07759751 -18.1171875 4.16015625 C-12.39990681 -0.19440342 -7.0661585 -1.3965564 0 0 Z " fill="#3F516A" transform="translate(90,439)"/>
<path d="M0 0 C0.495 1.98 0.495 1.98 1 4 C-2.40277715 6.17231281 -5.61173888 7.69562592 -9.44750977 8.94189453 C-10.51796036 9.293013 -11.58841095 9.64413147 -12.69129944 10.00588989 C-13.84633469 10.37777435 -15.00136993 10.74965881 -16.19140625 11.1328125 C-17.40529526 11.52894745 -18.61918427 11.9250824 -19.86985779 12.33322144 C-23.11074962 13.39067518 -26.35402483 14.44062662 -29.59783936 15.48907471 C-32.78875113 16.52191542 -35.97723551 17.56215885 -39.16601562 18.6015625 C-44.22579082 20.24950659 -49.28794762 21.88982035 -54.35205078 23.52441406 C-58.90140578 24.99335256 -63.44679559 26.47296293 -67.98695087 27.97007179 C-69.94053089 28.61360185 -71.89510981 29.25399418 -73.8500824 29.89328003 C-76.28625586 30.69056377 -78.72065587 31.49329356 -81.15296936 32.30227661 C-82.24322922 32.65740326 -83.33348907 33.01252991 -84.45678711 33.37841797 C-85.40992294 33.69261688 -86.36305878 34.0068158 -87.34507751 34.33053589 C-90.00988446 35.00249246 -92.26471197 35.12872628 -95 35 C-95.33 33.35 -95.66 31.7 -96 30 C-89.65909458 27.0261596 -83.26248029 24.63501721 -76.59765625 22.49609375 C-75.12173508 22.0158374 -75.12173508 22.0158374 -73.61599731 21.52587891 C-70.4330725 20.49148848 -67.24794013 19.4641158 -64.0625 18.4375 C-61.86424121 17.72629562 -59.66608107 17.01478627 -57.46801758 16.30297852 C-54.15333054 15.22976848 -50.83848446 14.15707238 -47.52293396 13.08653259 C-40.78888901 10.91074964 -34.06625049 8.70347742 -27.3515625 6.46875 C-25.02346581 5.69837031 -22.69503956 4.92899823 -20.36642456 4.16018677 C-18.92167443 3.6810046 -17.47806985 3.19835369 -16.03567505 2.71212769 C-14.06191189 2.0473735 -12.08438736 1.39530766 -10.10546875 0.74609375 C-9.01387451 0.38185303 -7.92228027 0.0176123 -6.79760742 -0.35766602 C-4.01586022 -0.99635847 -2.63445004 -0.99154516 0 0 Z " fill="#41536A" transform="translate(302,369)"/>
<path d="M0 0 C0.495 2.475 0.495 2.475 1 5 C-7.12750224 8.86896819 -15.54905432 11.61857596 -24.09375 14.38671875 C-25.65122026 14.89409838 -27.20863298 15.40165466 -28.76599121 15.90937805 C-32.01591202 16.96749153 -35.26706486 18.02171366 -38.51904297 19.07348633 C-42.66757802 20.41584807 -46.81194949 21.77059841 -50.95537567 23.12863445 C-54.1654999 24.17872813 -57.37818381 25.22080916 -60.59162903 26.26069069 C-62.12019972 26.756668 -63.64788156 27.25539408 -65.17460632 27.75702477 C-72.74746569 30.24158105 -79.97838703 32.56786867 -88 33 C-88.33 31.35 -88.66 29.7 -89 28 C-81.90185686 25.05310627 -74.73197667 22.50378102 -67.421875 20.13671875 C-65.79007294 19.60411186 -65.79007294 19.60411186 -64.12530518 19.06074524 C-60.66787377 17.93322186 -57.20894399 16.81037337 -53.75 15.6875 C-51.47646877 14.94625098 -49.20303054 14.20471663 -46.9296875 13.46289062 C-41.36884174 11.64972159 -35.80432166 9.84813907 -30.23852539 8.05023193 C-27.02279562 7.00739247 -23.81101105 5.95305499 -20.59960938 4.89697266 C-18.61336722 4.2500615 -16.6270432 3.60340162 -14.640625 2.95703125 C-13.73640808 2.65665451 -12.83219116 2.35627777 -11.90057373 2.04679871 C-11.06230042 1.77587906 -10.2240271 1.50495941 -9.36035156 1.22583008 C-8.27249359 0.8688781 -8.27249359 0.8688781 -7.16265869 0.50471497 C-4.71757197 -0.06591223 -2.50230264 -0.08606701 0 0 Z " fill="#40526A" transform="translate(231,408)"/>
<path d="M0 0 C2.7048407 1.95563839 4.45070971 4.04813251 6 7 C6.81745174 12.17719438 5.87313616 15.64075893 3 20 C-0.60462322 23.1805499 -4.12319564 23.56954504 -8.77734375 23.4296875 C-12.58350909 22.69387346 -14.35670706 20.77545759 -17 18 C-18.85962086 14.28075827 -18.57398707 10.04979769 -18 6 C-13.19629329 -0.40494227 -7.60746225 -2.45698695 0 0 Z " fill="#F1E09B" transform="translate(91,446)"/>
<path d="M0 0 C3.53363457 3.08253229 5.16025686 5.39467181 6 10 C6 14.39011936 5.49766254 16.42001703 3 20 C-0.70356336 23.26785002 -4.09078272 23.32535122 -8.81640625 23.30078125 C-12.33535425 22.81606033 -14.42065767 21.66210552 -16.75 19 C-18.56787119 14.63710915 -18.68200727 10.65910585 -18 6 C-16.12750855 2.5430927 -14.74136623 1.37068311 -11.25 -0.375 C-7.22153395 -1.14970501 -3.91180869 -1.36027915 0 0 Z " fill="#F3E19D" transform="translate(379,446)"/>
<path d="M0 0 C0.495 1.485 0.495 1.485 1 3 C-1.39701991 6.59552986 -2.5366438 6.78932971 -6.5637207 8.0847168 C-7.72865555 8.46488449 -8.89359039 8.84505219 -10.09382629 9.23674011 C-11.37100463 9.6413418 -12.64832662 10.04549027 -13.92578125 10.44921875 C-15.23397184 10.87019353 -16.54192684 11.29190106 -17.84965515 11.71430969 C-20.59224155 12.59762352 -23.33705394 13.47351509 -26.08374023 14.34399414 C-29.59820773 15.4582087 -33.10734273 16.58821411 -36.61503315 17.72355938 C-39.31648518 18.59644519 -42.02022865 19.46204107 -44.72475243 20.32535744 C-46.01911232 20.73924218 -47.31284446 21.1550956 -48.60592079 21.57297325 C-50.41767533 22.15699998 -52.2328274 22.73045481 -54.0480957 23.3034668 C-55.0790889 23.63195114 -56.11008209 23.96043549 -57.1723175 24.2988739 C-59.90861396 24.97734076 -62.1955917 25.1397368 -65 25 C-65.66 23.68 -66.32 22.36 -67 21 C-63.89919359 18.40751682 -61.02582993 17.14516614 -57.19335938 15.89941406 C-56.0253479 15.51601868 -54.85733643 15.13262329 -53.65393066 14.73760986 C-52.38402241 14.32980804 -51.11395828 13.92249134 -49.84375 13.515625 C-48.53613261 13.09190956 -47.22863926 12.66781112 -45.92126465 12.24334717 C-43.18597562 11.35737663 -40.44887955 10.47728497 -37.71044922 9.60107422 C-34.20257531 8.47795568 -30.70026932 7.33847041 -27.19921112 6.19430923 C-24.50266142 5.31541821 -21.80306973 4.44619548 -19.10249329 3.57976532 C-17.8096876 3.16351511 -16.51791356 2.74404647 -15.22721863 2.32129669 C-13.42357599 1.73193042 -11.61519188 1.15713473 -9.80664062 0.58300781 C-8.77945923 0.25230286 -7.75227783 -0.0784021 -6.69396973 -0.41912842 C-3.95976832 -1.00867472 -2.53316944 -1.17215716 0 0 Z " fill="#41536A" transform="translate(201,435)"/>
<path d="M0 0 C0.495 1.98 0.495 1.98 1 4 C-2.33474791 6.12099689 -5.47781347 7.65498867 -9.22998047 8.88525391 C-10.24808807 9.2221524 -11.26619568 9.5590509 -12.31515503 9.90615845 C-13.40482574 10.25939178 -14.49449646 10.61262512 -15.6171875 10.9765625 C-17.31296432 11.53263687 -17.31296432 11.53263687 -19.04299927 12.09994507 C-21.43083711 12.88117555 -23.81968853 13.65931392 -26.20947266 14.43457031 C-29.85748237 15.61931091 -33.50114625 16.81674808 -37.14453125 18.015625 C-39.46849964 18.77420491 -41.79271062 19.53204215 -44.1171875 20.2890625 C-45.20280975 20.6463443 -46.28843201 21.0036261 -47.4069519 21.37173462 C-57.85916149 24.74483048 -57.85916149 24.74483048 -63 25 C-65 23 -65 23 -65.0546875 21.04589844 C-63.66781213 18.35561704 -61.96957171 17.8818274 -59.18907166 16.92164612 C-58.16735619 16.59691566 -58.16735619 16.59691566 -57.125 16.265625 C-56.41650406 16.02621689 -55.70800812 15.78680878 -54.9780426 15.54014587 C-52.65709389 14.76050281 -50.32913113 14.00481129 -48 13.25 C-46.40577737 12.72163804 -44.81194702 12.19209103 -43.21850586 11.66137695 C-40.01066294 10.59649053 -36.79964268 9.54213983 -33.58544922 8.49658203 C-29.4665205 7.15610735 -25.359489 5.78314027 -21.25390625 4.40234375 C-19.02392709 3.662585 -16.79349181 2.92419911 -14.5625 2.1875 C-13.03012695 1.67268066 -13.03012695 1.67268066 -11.46679688 1.14746094 C-10.53029297 0.84485352 -9.59378906 0.54224609 -8.62890625 0.23046875 C-7.4234314 -0.16555542 -7.4234314 -0.16555542 -6.19360352 -0.56958008 C-3.77468987 -1.04420943 -2.31457542 -0.78055398 0 0 Z " fill="#42536B" transform="translate(380,377)"/>
<path d="M0 0 C0.495 2.475 0.495 2.475 1 5 C-5.55061337 7.87892533 -12.23481516 10.2253765 -19.01586914 12.4987793 C-21.06371806 13.18790989 -23.10694393 13.8897373 -25.15039062 14.59179688 C-26.46588022 15.03464397 -27.7816271 15.47672767 -29.09765625 15.91796875 C-30.27851807 16.31781982 -31.45937988 16.7176709 -32.67602539 17.12963867 C-35.94357096 17.98522442 -38.64099658 18.17016907 -42 18 C-42.33 16.35 -42.66 14.7 -43 13 C-35.03158875 9.65047215 -26.9122359 6.89813206 -18.6875 4.25 C-17.43904297 3.83878906 -16.19058594 3.42757813 -14.90429688 3.00390625 C-13.1012207 2.42189453 -13.1012207 2.42189453 -11.26171875 1.828125 C-10.17850342 1.4765332 -9.09528809 1.12494141 -7.97924805 0.76269531 C-5.16941681 0.04337115 -2.88200895 -0.15616304 0 0 Z " fill="#40526A" transform="translate(292,405)"/>
<path d="M0 0 C-2.25740623 2.33524782 -4.2805761 4.18705073 -7 6 C-13.20940471 5.68278041 -18.66334019 3.98603451 -24.5 1.9375 C-25.32242187 1.65583984 -26.14484375 1.37417969 -26.9921875 1.08398438 C-28.99717343 0.39622757 -30.99893723 -0.30091076 -33 -1 C-33 -1.66 -33 -2.32 -33 -3 C-21.43963774 -9.86920076 -11.48471665 -4.66748181 0 0 Z " fill="#EBDB9B" transform="translate(355,423)"/>
</svg>
